<svg width="405" height="239" viewBox="0 0 405 239" fill="none" xmlns="http://www.w3.org/2000/svg">
<path d="M2 1V25.4524L25.3578 1H2Z" fill="#2AA8E6" stroke="#2AA8E6" stroke-width="2"/>
<path d="M2 34.2302L34.578 1H151.982H399.083V39.246V156.492L404 160.881V202.889L370.807 236.746L338.844 237.373L333.927 232.357H2.61468L2 34.2302ZM2 34.2302L5.07339 35.4841M5.07339 35.4841L5.68807 61.1905L7.53211 63.6984V144.579L5.68807 147.714V228.595H321.018H359.128L397.239 187.214V162.135V7.26984H384.33L380.028 2.88095H151.982H35.1927L5.07339 34.2302V35.4841Z" stroke="#2AA8E6" stroke-width="2"/>
<path d="M357.285 231.103H335.156L340.074 238H370.193L403.386 204.143V162.135L399.083 157.746H397.239V189.722L357.285 231.103Z" fill="#2AA8E6" stroke="#2AA8E6" stroke-width="2"/>
<path d="M6.91757 63.6985L3.22949 58.6826V150.222L6.91757 145.206V63.6985Z" fill="#2AA8E6" stroke="#2AA8E6" stroke-width="2"/>
</svg>
