<svg width="497" height="292" viewBox="0 0 497 292" fill="none" xmlns="http://www.w3.org/2000/svg">
<path d="M243.169 1H6.33077V4.2133L1 9.03324V41.9695L5.56923 46.7895V84.5457L3.28462 86.9557V136.762L5.56923 138.368V278.95H13.1846L16.2308 283.77H106.092L111.423 288.59H127.415L131.223 291H496V205.044V94.9889V1H416.8L400.046 15.4598H257.638L243.169 1Z" stroke="#2AA8E6" stroke-width="2"/>
<path d="M6.33077 5.82031H4.80769L1 9.83693V41.9699L7.09231 45.9865V84.5461L4.80769 89.366L4.98538 100.613L20.8 86.1527V34.74L6.33077 17.8702V5.82031Z" fill="#2AA8E6" stroke="#2AA8E6" stroke-width="2"/>
<path d="M107.615 280.557H116.754L121.323 284.573H111.423L109.138 282.163H115.992L116.754 282.967M11.6614 278.95H117.515L125.131 286.18H110.661L106.854 282.163H16.2306L11.6614 278.95Z" stroke="#2AA8E6" stroke-width="2"/>
<path d="M259.924 1H250.785L260.685 10.6399H269.062L259.924 1Z" fill="#2AA8E6"/>
<path d="M273.631 1H264.492L274.392 10.6399H282.769L273.631 1Z" fill="#2AA8E6"/>
<path d="M287.339 1H278.2L288.1 10.6399H296.477L287.339 1Z" fill="#2AA8E6"/>
<path d="M301.047 1H291.908L301.808 10.6399H310.185L301.047 1Z" fill="#2AA8E6"/>
<path d="M314.755 1H305.616L315.516 10.6399H323.893L314.755 1Z" fill="#2AA8E6"/>
<path d="M328.462 1H319.323L329.223 10.6399H337.6L328.462 1Z" fill="#2AA8E6"/>
<path d="M342.169 1H333.03L342.93 10.6399H351.307L342.169 1Z" fill="#2AA8E6"/>
</svg>
