<?xml version="1.0" encoding="UTF-8"?>
<!DOCTYPE svg PUBLIC "-//W3C//DTD SVG 1.1//EN" "http://www.w3.org/Graphics/SVG/1.1/DTD/svg11.dtd">
<!-- Creator: CorelDRAW 2021 (64-Bit) -->
<svg xmlns="http://www.w3.org/2000/svg" xml:space="preserve" width="8in" height="2in" version="1.1" style="shape-rendering:geometricPrecision; text-rendering:geometricPrecision; image-rendering:optimizeQuality; fill-rule:evenodd; clip-rule:evenodd"
viewBox="0 0 8000 2000"
 xmlns:xlink="http://www.w3.org/1999/xlink"
 xmlns:xodm="http://www.corel.com/coreldraw/odm/2003">
 <defs>
  <style type="text/css">
   <![CDATA[
    .fil3 {fill:#3EEBE0}
    .fil2 {fill:#00CCFF;fill-rule:nonzero}
    .fil1 {fill:url(#id0)}
    .fil0 {fill:url(#id1);fill-rule:nonzero}
   ]]>
  </style>
  <linearGradient id="id0" gradientUnits="objectBoundingBox" x1="0%" y1="50.0002%" x2="100%" y2="50.0002%">
   <stop offset="0" style="stop-opacity:1; stop-color:#00CCFF"/>
   <stop offset="1" style="stop-opacity:1; stop-color:#66FFCC"/>
  </linearGradient>
  <linearGradient id="id1" gradientUnits="userSpaceOnUse" x1="4203.72" y1="1697.83" x2="7313.81" y2="1697.83">
   <stop offset="0" style="stop-opacity:1; stop-color:gray"/>
   <stop offset="1" style="stop-opacity:1; stop-color:#C2BEBE"/>
  </linearGradient>
 </defs>
 <g id="Layer_x0020_1">
  <metadata id="CorelCorpID_0Corel-Layer"/>
  <path class="fil0" d="M4253.06 1773.33l24.24 0 0 -128.49 49.13 0 0 -21.67 -122.7 0 0 21.67 49.34 0 0 128.49zm333.88 -23.59l-86.87 0 0 -40.33 82.8 0 0 -22.31 -82.8 0 0 -40.54 86.23 0 0 -23.38 -110.26 0 0 150.16 110.9 0 0 -23.59zm266.31 -12.23c-5.15,5.15 -11.3,9.15 -18.44,12.01 -7.15,2.86 -14.3,4.29 -21.45,4.29 -18.16,0 -31.89,-5.33 -41.19,-15.98 -9.3,-10.65 -14.02,-23.56 -14.16,-38.72 -0.15,-15.16 4.57,-28.24 14.16,-39.26 9.58,-11.01 23.31,-16.52 41.19,-16.52 15.44,0 28.39,5.15 38.83,15.44l16.09 -15.44c-15.16,-15.16 -33.46,-22.74 -54.91,-22.74 -12.87,0 -24.49,2.22 -34.85,6.65 -10.37,4.43 -18.7,10.4 -25,17.91 -6.29,7.51 -11.08,15.87 -14.37,25.1 -3.29,9.22 -4.93,18.91 -4.93,29.06 0,10.16 1.61,19.74 4.83,28.74 3.22,9.01 7.97,17.17 14.26,24.46 6.29,7.29 14.59,13.09 24.88,17.37 10.3,4.29 22.02,6.44 35.18,6.44 22.6,0 41.4,-7.44 56.42,-22.31l-16.52 -16.52zm295.28 35.82l0 -150.16 -23.81 0 0 65.43 -79.37 0 0 -65.43 -24.03 0 0 150.16 24.03 0 0 -62.42 79.37 0 0 62.42 23.81 0zm183.3 -150.16l-18.45 0 0 150.16 24.24 0 0 -105.97 85.16 105.97 18.23 0 0 -150.16 -24.03 0 0 106.83 -85.16 -106.83zm342.04 -2.79c-22.59,0 -41.11,7.4 -55.56,22.2 -14.44,14.8 -21.67,33.64 -21.67,56.52 0,10.15 1.61,19.77 4.83,28.85 3.22,9.08 7.87,17.27 13.94,24.56 6.07,7.29 14.12,13.12 24.13,17.48 10.01,4.36 21.31,6.54 33.89,6.54 12.59,0 23.88,-2.11 33.89,-6.33 10.01,-4.22 18.06,-9.97 24.13,-17.27 6.07,-7.29 10.72,-15.55 13.94,-24.78 3.22,-9.22 4.83,-18.98 4.83,-29.28 0,-21.74 -6.65,-40.22 -19.95,-55.45 -13.3,-15.23 -32.11,-22.92 -56.42,-23.06zm-53.41 78.94c0,-16.87 4.69,-30.6 14.05,-41.19 9.37,-10.58 22.49,-15.87 39.36,-15.87 11.58,0.14 21.49,3.11 29.71,8.9 8.22,5.79 14.09,12.84 17.59,21.13 3.5,8.3 5.26,17.31 5.26,27.03 0,15.74 -4.43,28.85 -13.3,39.36 -8.87,10.51 -22.09,15.77 -39.69,15.77 -8.87,0 -16.77,-1.61 -23.7,-4.83 -6.94,-3.22 -12.48,-7.5 -16.63,-12.87 -4.15,-5.36 -7.26,-11.22 -9.33,-17.59 -2.07,-6.36 -3.18,-12.98 -3.33,-19.84zm285.41 -76.15l0 150.16 103.18 0 0 -22.31 -79.15 0 0 -127.85 -24.03 0zm317.37 -2.79c-22.59,0 -41.11,7.4 -55.56,22.2 -14.44,14.8 -21.67,33.64 -21.67,56.52 0,10.15 1.61,19.77 4.83,28.85 3.22,9.08 7.87,17.27 13.94,24.56 6.07,7.29 14.12,13.12 24.13,17.48 10.01,4.36 21.31,6.54 33.89,6.54 12.59,0 23.88,-2.11 33.89,-6.33 10.01,-4.22 18.06,-9.97 24.13,-17.27 6.07,-7.29 10.72,-15.55 13.94,-24.78 3.22,-9.22 4.83,-18.98 4.83,-29.28 0,-21.74 -6.65,-40.22 -19.95,-55.45 -13.3,-15.23 -32.11,-22.92 -56.42,-23.06zm-53.41 78.94c0,-16.87 4.69,-30.6 14.05,-41.19 9.37,-10.58 22.49,-15.87 39.36,-15.87 11.58,0.14 21.49,3.11 29.71,8.9 8.22,5.79 14.09,12.84 17.59,21.13 3.5,8.3 5.26,17.31 5.26,27.03 0,15.74 -4.43,28.85 -13.3,39.36 -8.87,10.51 -22.09,15.77 -39.69,15.77 -8.87,0 -16.77,-1.61 -23.7,-4.83 -6.94,-3.22 -12.48,-7.5 -16.63,-12.87 -4.15,-5.36 -7.26,-11.22 -9.33,-17.59 -2.07,-6.36 -3.18,-12.98 -3.33,-19.84zm410.68 -57.06c-15.3,-15.16 -33.82,-22.74 -55.56,-22.74 -24.59,0 -43.9,7.69 -57.92,23.06 -14.01,15.37 -21.02,34.43 -21.02,57.17 0,10.3 1.57,19.91 4.72,28.85 3.15,8.94 7.8,17.02 13.94,24.24 6.15,7.22 14.41,12.94 24.78,17.16 10.37,4.22 22.2,6.33 35.5,6.33 23.46,0 43.12,-8.72 58.99,-26.17l0 -61.57 -64.14 0 0 21.45 41.83 0 0 30.46c-10.58,8.87 -22.81,13.3 -36.68,13.3 -18.3,0 -32.1,-5.22 -41.4,-15.66 -9.3,-10.44 -13.94,-23.24 -13.94,-38.4 -0.15,-16.44 4.79,-30.25 14.8,-41.4 10.01,-11.15 23.53,-16.73 40.54,-16.73 7.15,0 14.41,1.39 21.78,4.18 7.36,2.79 13.62,6.76 18.77,11.91l15.02 -15.44zm185.02 131.06l0 -150.16 -23.81 0 0 150.16 23.81 0zm275.76 -23.59l-86.88 0 0 -40.33 82.8 0 0 -22.31 -82.8 0 0 -40.54 86.24 0 0 -23.38 -110.26 0 0 150.16 110.9 0 0 -23.59zm265.89 -105.54c-10.58,-16.87 -29.25,-25.31 -55.99,-25.31 -7.15,0 -14.02,0.83 -20.59,2.47 -6.57,1.65 -12.72,4.11 -18.44,7.4 -5.72,3.29 -10.3,7.8 -13.73,13.52 -3.43,5.72 -5.15,12.3 -5.15,19.73 0,6.15 1.11,11.62 3.33,16.41 2.22,4.79 5,8.69 8.36,11.69 3.36,3 7.76,5.57 13.2,7.72 5.43,2.15 10.62,3.79 15.55,4.93 4.93,1.15 10.83,2.15 17.7,3 12.01,1.57 21.41,4.18 28.2,7.83 6.8,3.65 10.19,9.26 10.19,16.84 0,5.87 -1.96,10.76 -5.9,14.69 -3.93,3.93 -8.61,6.61 -14.05,8.05 -5.43,1.43 -11.44,2.14 -18.02,2.14 -21.45,0 -37.04,-8.22 -46.76,-24.67l-18.02 12.01c12.3,22.74 33.82,34.11 64.57,34.11 11.15,0 21.2,-1.46 30.14,-4.4 8.94,-2.93 16.52,-7.97 22.74,-15.12 6.22,-7.15 9.33,-16.09 9.33,-26.81 0,-8.01 -1.61,-14.91 -4.83,-20.7 -3.22,-5.79 -7.9,-10.37 -14.05,-13.73 -6.15,-3.36 -12.37,-5.9 -18.66,-7.61 -6.29,-1.72 -13.87,-3.22 -22.74,-4.5 -11.87,-1.72 -20.91,-4.08 -27.13,-7.08 -6.22,-3 -9.33,-7.79 -9.33,-14.37 0,-7.01 3.22,-12.55 9.65,-16.63 6.44,-4.07 14.8,-6.11 25.1,-6.11 7.86,0.14 15.12,1.68 21.77,4.61 6.65,2.93 11.76,6.97 15.34,12.12l18.23 -12.23z"/>
  <path class="fil1" d="M6787.17 885.24c3.16,-0.87 6.32,-1.64 9.48,-2.34l0 142.6c0,22.44 18.36,40.8 40.8,40.8l0.01 0c22.44,0 40.8,-18.36 40.8,-40.8l0 -142.29c65.22,14.88 120.34,64.26 139.26,133.29 27.36,99.86 -31.4,202.98 -131.25,230.34 -99.86,27.36 -202.98,-31.41 -230.34,-131.26 -27.36,-99.85 31.41,-202.98 131.26,-230.34zm-6013.83 -272.65l671.16 0c17.34,0 33.17,4.56 47.48,13.66 14.31,9.11 24.93,21.46 31.87,37.07 6.94,15.61 9.32,31.87 7.16,48.78 -2.17,16.91 -8.89,31.87 -20.17,44.88l-520.28 593.11 479.96 0c24.28,0 44.87,8.46 61.78,25.37 16.91,16.91 25.37,37.5 25.37,61.78 0,24.28 -8.45,44.87 -25.37,61.78 -16.91,16.91 -37.5,25.36 -61.78,25.36l-672.46 0c-17.35,0 -33.17,-4.55 -47.47,-13.66 -14.31,-9.1 -24.93,-21.46 -31.87,-37.07 -6.94,-15.61 -9.32,-31.87 -7.15,-48.78 2.17,-16.91 9.32,-31.87 21.46,-44.88l520.28 -593.12 -479.96 0c-24.28,0 -44.87,-8.46 -61.78,-25.37 -16.91,-16.91 -25.37,-37.5 -25.37,-61.78 0,-24.28 8.45,-44.87 25.37,-61.78 16.91,-16.91 37.5,-25.37 61.78,-25.37zm1097.98 639.95l0 -368.1c0,-38.15 7.15,-73.7 21.46,-106.66 14.31,-32.95 33.6,-61.57 57.88,-85.85 24.28,-24.28 53.11,-43.57 86.5,-57.88 33.38,-14.31 68.72,-21.46 106.01,-21.46l300.46 0c38.15,0 73.7,7.15 106.66,21.46 32.95,14.31 61.78,33.82 86.5,58.53 24.71,24.72 44.22,53.55 58.53,86.5 14.31,32.95 21.46,68.5 21.46,106.66l0 20.81c0,38.15 -7.15,73.7 -21.46,106.66 -14.31,32.95 -33.82,61.78 -58.53,86.49 -24.71,24.72 -53.55,44.22 -86.5,58.54 -32.95,14.31 -68.5,21.46 -106.66,21.46l-398.02 0 0 72.84c0,26.88 9.54,49.86 28.62,68.93 19.08,19.08 42.06,28.61 68.94,28.61l483.86 0c24.28,0 44.87,8.46 61.78,25.37 16.91,16.91 25.36,37.5 25.36,61.78 0,24.28 -8.45,44.87 -25.36,61.78 -16.91,16.91 -37.5,25.36 -61.78,25.36l-483.86 0c-37.29,0 -72.63,-7.15 -106.01,-21.46 -33.39,-14.31 -62.22,-33.6 -86.5,-57.88 -24.28,-24.28 -43.57,-53.11 -57.88,-86.5 -14.31,-33.38 -21.46,-68.72 -21.46,-106zm174.29 -368.1l0 120.97 398.02 0c27.75,0 51.17,-9.54 70.24,-28.62 19.08,-19.08 28.61,-42.49 28.61,-70.24l0 -20.81c0,-27.75 -9.53,-51.17 -28.61,-70.24 -19.07,-19.08 -42.49,-28.61 -70.24,-28.61l-300.46 0c-26.88,0 -49.86,9.32 -68.94,27.96 -19.07,18.65 -28.62,41.84 -28.62,69.59zm1090.84 465.65l476.06 0c26.88,0 49.65,-9.32 68.29,-27.96 18.65,-18.64 27.96,-41.83 27.96,-69.58 0,-26.89 -9.32,-49.65 -27.96,-68.29 -18.64,-18.65 -41.41,-27.97 -68.29,-27.97l-291.35 0c-37.29,0 -72.41,-7.15 -105.36,-21.46 -32.95,-14.31 -61.78,-33.82 -86.5,-58.54 -24.71,-24.71 -44.22,-53.54 -58.53,-86.5 -14.31,-32.95 -21.46,-68.07 -21.46,-105.36 0,-37.28 7.15,-72.41 21.46,-105.36 14.31,-32.95 33.82,-61.78 58.53,-86.5 24.71,-24.71 53.54,-44.22 86.5,-58.53 32.95,-14.31 68.07,-21.46 105.36,-21.46l474.75 0c24.28,0 44.88,8.45 61.79,25.37 16.91,16.91 25.37,37.5 25.37,61.78 0,24.28 -8.46,44.87 -25.37,61.78 -16.91,16.91 -37.51,25.37 -61.79,25.37l-474.75 0c-27.75,0 -50.94,9.54 -69.59,28.61 -18.64,19.07 -27.96,42.06 -27.96,68.94 0,26.88 9.32,49.86 27.96,68.94 18.65,19.07 41.84,28.61 69.59,28.61l291.35 0c37.29,0 72.41,7.16 105.36,21.47 32.95,14.3 61.57,33.59 85.85,57.87 24.28,24.28 43.57,52.9 57.88,85.85 14.31,32.95 21.46,68.07 21.46,105.36 0,37.28 -6.94,72.4 -20.81,105.35 -13.87,32.95 -33.17,61.78 -57.88,86.5 -24.71,24.72 -53.33,44.22 -85.85,58.53 -32.52,14.31 -67.85,21.46 -106.01,21.46l-476.06 0c-24.28,0 -44.88,-8.45 -61.78,-25.36 -16.91,-16.91 -25.37,-37.5 -25.37,-61.78 0,-24.28 8.46,-44.87 25.37,-61.78 16.91,-16.91 37.5,-25.37 61.78,-25.37zm1043.36 87.15l0 -737.5c0,-24.28 8.46,-44.87 25.37,-61.78 16.91,-16.91 37.5,-25.37 61.78,-25.37l373.3 0c63.3,0 122.7,11.93 178.2,35.77 55.5,23.85 103.84,56.58 145.03,98.2 41.19,41.62 73.7,89.97 97.55,145.03 23.85,55.06 35.77,113.81 35.77,176.25 0,62.43 -11.92,121.4 -35.77,176.9 -23.85,55.49 -56.15,104.06 -96.9,145.67 -40.76,41.62 -88.89,74.36 -144.38,98.2 -55.5,23.85 -115.33,35.77 -179.5,35.77l-373.3 0c-24.28,0 -44.87,-8.45 -61.78,-25.36 -16.91,-16.91 -25.37,-37.5 -25.37,-61.78zm174.3 -650.35l0 563.2 286.16 0c39.02,0 75.87,-7.37 110.56,-22.11 34.68,-14.74 64.6,-34.69 89.74,-59.83 25.15,-25.15 45.09,-55.06 59.83,-89.75 14.75,-34.69 22.11,-71.54 22.11,-110.56 0,-39.02 -7.37,-75.66 -22.11,-109.91 -14.74,-34.25 -34.9,-64.17 -60.48,-89.75 -25.58,-25.58 -55.5,-45.52 -89.75,-59.83 -34.26,-14.31 -70.89,-21.46 -109.91,-21.46l-286.16 0zm1370.49 -174.3l358.99 0c24.28,0 44.87,8.45 61.78,25.37 16.91,16.91 25.37,37.5 25.37,61.78 0,24.28 -8.46,44.87 -25.37,61.78 -16.91,16.91 -37.5,25.37 -61.78,25.37l-358.99 0c-27.75,0 -51.38,9.76 -70.89,29.26 -19.51,19.51 -29.27,43.14 -29.27,70.89l0 550.2c0,24.28 -8.45,44.87 -25.36,61.78 -16.91,16.91 -37.51,25.36 -61.78,25.36 -24.28,0 -44.87,-8.45 -61.78,-25.36 -16.91,-16.91 -25.37,-37.5 -25.37,-61.78l0 -550.2c0,-38.15 7.15,-73.7 21.46,-106.66 14.31,-32.95 34.04,-62 59.19,-87.15 25.14,-25.15 54.41,-44.88 87.8,-59.19 33.38,-14.31 68.72,-21.46 106.01,-21.46zm987.04 -3.09c110.2,-30.2 221.96,-18.83 318.66,24.57 16.13,7.24 40.39,17.24 52.42,29.5 7.94,8.11 14,18.3 17.2,30.02 10.07,36.75 -11.56,74.7 -48.3,84.76 -16.46,4.51 -33.16,2.67 -47.48,-4.06 -6.82,-3.2 -14.84,-8.53 -22.44,-12.17 -70.42,-33.63 -152.78,-43.08 -233.94,-20.84 -179.35,49.14 -284.91,234.38 -235.76,413.74 49.15,179.35 234.38,284.9 413.74,235.76 173.39,-47.51 277.8,-222.21 240.14,-395.83l0.09 -0.06c-1.07,-2.61 -2,-5.32 -2.76,-8.11 -10.08,-36.75 11.56,-74.7 48.3,-84.77 36.74,-10.07 74.7,11.56 84.76,48.3 1.98,7.22 3.32,16.25 4.81,23.77 48.07,241.41 -98.13,482.42 -339.22,548.49 -252.14,69.09 -512.55,-79.29 -581.64,-331.43 -69.09,-252.14 79.3,-512.55 331.44,-581.64zm419.43 159.26c34.06,-9.33 69.23,10.71 78.56,44.76 9.33,34.06 -10.71,69.23 -44.76,78.56 -34.06,9.33 -69.24,-10.71 -78.57,-44.76 -9.33,-34.06 10.71,-69.23 44.77,-78.56z"/>
  <path class="fil1" d="M6787.17 885.24c3.16,-0.87 6.32,-1.64 9.48,-2.34l0 142.6c0,22.44 18.36,40.8 40.8,40.8l0.01 0c22.44,0 40.8,-18.36 40.8,-40.8l0 -142.29c65.22,14.88 120.34,64.26 139.26,133.29 27.36,99.86 -31.4,202.98 -131.25,230.34 -99.86,27.36 -202.98,-31.41 -230.34,-131.26 -27.36,-99.85 31.41,-202.98 131.26,-230.34zm-6013.83 -272.65l671.16 0c17.34,0 33.17,4.56 47.48,13.66 14.31,9.11 24.93,21.46 31.87,37.07 6.94,15.61 9.32,31.87 7.16,48.78 -2.17,16.91 -8.89,31.87 -20.17,44.88l-520.28 593.11 479.96 0c24.28,0 44.87,8.46 61.78,25.37 16.91,16.91 25.37,37.5 25.37,61.78 0,24.28 -8.45,44.87 -25.37,61.78 -16.91,16.91 -37.5,25.36 -61.78,25.36l-672.46 0c-17.35,0 -33.17,-4.55 -47.47,-13.66 -14.31,-9.1 -24.93,-21.46 -31.87,-37.07 -6.94,-15.61 -9.32,-31.87 -7.15,-48.78 2.17,-16.91 9.32,-31.87 21.46,-44.88l520.28 -593.12 -479.96 0c-24.28,0 -44.87,-8.46 -61.78,-25.37 -16.91,-16.91 -25.37,-37.5 -25.37,-61.78 0,-24.28 8.45,-44.87 25.37,-61.78 16.91,-16.91 37.5,-25.37 61.78,-25.37zm1097.98 639.95l0 -368.1c0,-38.15 7.15,-73.7 21.46,-106.66 14.31,-32.95 33.6,-61.57 57.88,-85.85 24.28,-24.28 53.11,-43.57 86.5,-57.88 33.38,-14.31 68.72,-21.46 106.01,-21.46l300.46 0c38.15,0 73.7,7.15 106.66,21.46 32.95,14.31 61.78,33.82 86.5,58.53 24.71,24.72 44.22,53.55 58.53,86.5 14.31,32.95 21.46,68.5 21.46,106.66l0 20.81c0,38.15 -7.15,73.7 -21.46,106.66 -14.31,32.95 -33.82,61.78 -58.53,86.49 -24.71,24.72 -53.55,44.22 -86.5,58.54 -32.95,14.31 -68.5,21.46 -106.66,21.46l-398.02 0 0 72.84c0,26.88 9.54,49.86 28.62,68.93 19.08,19.08 42.06,28.61 68.94,28.61l483.86 0c24.28,0 44.87,8.46 61.78,25.37 16.91,16.91 25.36,37.5 25.36,61.78 0,24.28 -8.45,44.87 -25.36,61.78 -16.91,16.91 -37.5,25.36 -61.78,25.36l-483.86 0c-37.29,0 -72.63,-7.15 -106.01,-21.46 -33.39,-14.31 -62.22,-33.6 -86.5,-57.88 -24.28,-24.28 -43.57,-53.11 -57.88,-86.5 -14.31,-33.38 -21.46,-68.72 -21.46,-106zm174.29 -368.1l0 120.97 398.02 0c27.75,0 51.17,-9.54 70.24,-28.62 19.08,-19.08 28.61,-42.49 28.61,-70.24l0 -20.81c0,-27.75 -9.53,-51.17 -28.61,-70.24 -19.07,-19.08 -42.49,-28.61 -70.24,-28.61l-300.46 0c-26.88,0 -49.86,9.32 -68.94,27.96 -19.07,18.65 -28.62,41.84 -28.62,69.59zm1090.84 465.65l476.06 0c26.88,0 49.65,-9.32 68.29,-27.96 18.65,-18.64 27.96,-41.83 27.96,-69.58 0,-26.89 -9.32,-49.65 -27.96,-68.29 -18.64,-18.65 -41.41,-27.97 -68.29,-27.97l-291.35 0c-37.29,0 -72.41,-7.15 -105.36,-21.46 -32.95,-14.31 -61.78,-33.82 -86.5,-58.54 -24.71,-24.71 -44.22,-53.54 -58.53,-86.5 -14.31,-32.95 -21.46,-68.07 -21.46,-105.36 0,-37.28 7.15,-72.41 21.46,-105.36 14.31,-32.95 33.82,-61.78 58.53,-86.5 24.71,-24.71 53.54,-44.22 86.5,-58.53 32.95,-14.31 68.07,-21.46 105.36,-21.46l474.75 0c24.28,0 44.88,8.45 61.79,25.37 16.91,16.91 25.37,37.5 25.37,61.78 0,24.28 -8.46,44.87 -25.37,61.78 -16.91,16.91 -37.51,25.37 -61.79,25.37l-474.75 0c-27.75,0 -50.94,9.54 -69.59,28.61 -18.64,19.07 -27.96,42.06 -27.96,68.94 0,26.88 9.32,49.86 27.96,68.94 18.65,19.07 41.84,28.61 69.59,28.61l291.35 0c37.29,0 72.41,7.16 105.36,21.47 32.95,14.3 61.57,33.59 85.85,57.87 24.28,24.28 43.57,52.9 57.88,85.85 14.31,32.95 21.46,68.07 21.46,105.36 0,37.28 -6.94,72.4 -20.81,105.35 -13.87,32.95 -33.17,61.78 -57.88,86.5 -24.71,24.72 -53.33,44.22 -85.85,58.53 -32.52,14.31 -67.85,21.46 -106.01,21.46l-476.06 0c-24.28,0 -44.88,-8.45 -61.78,-25.36 -16.91,-16.91 -25.37,-37.5 -25.37,-61.78 0,-24.28 8.46,-44.87 25.37,-61.78 16.91,-16.91 37.5,-25.37 61.78,-25.37zm1043.36 87.15l0 -737.5c0,-24.28 8.46,-44.87 25.37,-61.78 16.91,-16.91 37.5,-25.37 61.78,-25.37l373.3 0c63.3,0 122.7,11.93 178.2,35.77 55.5,23.85 103.84,56.58 145.03,98.2 41.19,41.62 73.7,89.97 97.55,145.03 23.85,55.06 35.77,113.81 35.77,176.25 0,62.43 -11.92,121.4 -35.77,176.9 -23.85,55.49 -56.15,104.06 -96.9,145.67 -40.76,41.62 -88.89,74.36 -144.38,98.2 -55.5,23.85 -115.33,35.77 -179.5,35.77l-373.3 0c-24.28,0 -44.87,-8.45 -61.78,-25.36 -16.91,-16.91 -25.37,-37.5 -25.37,-61.78zm174.3 -650.35l0 563.2 286.16 0c39.02,0 75.87,-7.37 110.56,-22.11 34.68,-14.74 64.6,-34.69 89.74,-59.83 25.15,-25.15 45.09,-55.06 59.83,-89.75 14.75,-34.69 22.11,-71.54 22.11,-110.56 0,-39.02 -7.37,-75.66 -22.11,-109.91 -14.74,-34.25 -34.9,-64.17 -60.48,-89.75 -25.58,-25.58 -55.5,-45.52 -89.75,-59.83 -34.26,-14.31 -70.89,-21.46 -109.91,-21.46l-286.16 0zm1370.49 -174.3l358.99 0c24.28,0 44.87,8.45 61.78,25.37 16.91,16.91 25.37,37.5 25.37,61.78 0,24.28 -8.46,44.87 -25.37,61.78 -16.91,16.91 -37.5,25.37 -61.78,25.37l-358.99 0c-27.75,0 -51.38,9.76 -70.89,29.26 -19.51,19.51 -29.27,43.14 -29.27,70.89l0 550.2c0,24.28 -8.45,44.87 -25.36,61.78 -16.91,16.91 -37.51,25.36 -61.78,25.36 -24.28,0 -44.87,-8.45 -61.78,-25.36 -16.91,-16.91 -25.37,-37.5 -25.37,-61.78l0 -550.2c0,-38.15 7.15,-73.7 21.46,-106.66 14.31,-32.95 34.04,-62 59.19,-87.15 25.14,-25.15 54.41,-44.88 87.8,-59.19 33.38,-14.31 68.72,-21.46 106.01,-21.46zm987.04 -3.09c110.2,-30.2 221.96,-18.83 318.66,24.57 16.13,7.24 40.39,17.24 52.42,29.5 7.94,8.11 14,18.3 17.2,30.02 10.07,36.75 -11.56,74.7 -48.3,84.76 -16.46,4.51 -33.16,2.67 -47.48,-4.06 -6.82,-3.2 -14.84,-8.53 -22.44,-12.17 -70.42,-33.63 -152.78,-43.08 -233.94,-20.84 -179.35,49.14 -284.91,234.38 -235.76,413.74 49.15,179.35 234.38,284.9 413.74,235.76 173.39,-47.51 277.8,-222.21 240.14,-395.83l0.09 -0.06c-1.07,-2.61 -2,-5.32 -2.76,-8.11 -10.08,-36.75 11.56,-74.7 48.3,-84.77 36.74,-10.07 74.7,11.56 84.76,48.3 1.98,7.22 3.32,16.25 4.81,23.77 48.07,241.41 -98.13,482.42 -339.22,548.49 -252.14,69.09 -512.55,-79.29 -581.64,-331.43 -69.09,-252.14 79.3,-512.55 331.44,-581.64zm419.43 159.26c34.06,-9.33 69.23,10.71 78.56,44.76 9.33,34.06 -10.71,69.23 -44.76,78.56 -34.06,9.33 -69.24,-10.71 -78.57,-44.76 -9.33,-34.06 10.71,-69.23 44.77,-78.56z"/>
  <path class="fil2" d="M837.94 223.54l0 127.15c0,20.31 -5.6,36.01 -16.79,47.1 -11.19,11.09 -25.7,16.12 -43.52,15.08 -16.58,-0.62 -29.95,-6.32 -40.1,-17.1 -10.16,-10.78 -15.24,-25.8 -15.24,-45.08l0 -127.15 -34.51 0 0 127.15c0,29.43 8.55,52.33 25.65,68.7 17.1,16.37 38.5,24.87 64.2,25.5 27.57,1.04 50.26,-6.69 68.09,-23.16 17.82,-16.48 26.74,-40.16 26.74,-71.04l0 -127.15 -34.51 0zm226.95 217.31l0 -82.39c0,-22.8 -6.17,-40.72 -18.5,-53.78 -12.33,-13.06 -28.13,-19.59 -47.41,-19.59 -19.9,0 -37.1,8.19 -51.61,24.56l-1.87 -22.38 -29.22 0 0 153.58 32.02 0 0 -80.21c0,-12.85 4.04,-23.73 12.12,-32.64 8.08,-8.91 18.34,-13.37 30.78,-13.37 13.06,0 23.21,3.99 30.46,11.97 7.26,7.98 10.89,18.7 10.89,32.18l0 82.07 32.33 0zm42.28 -217.31l0 217.31 32.02 0 0 -217.31 -32.02 0zm146.12 60.93c-23.42,0 -42.44,7.57 -57.05,22.7 -14.61,15.13 -21.92,34.2 -21.92,57.2 0,23.01 7.26,42.02 21.76,57.05 14.51,15.02 33.58,22.54 57.2,22.54 23.83,0 43.06,-7.52 57.67,-22.54 14.61,-15.03 21.92,-34.04 21.92,-57.05 0,-22.8 -7.41,-41.81 -22.23,-57.05 -14.82,-15.23 -33.94,-22.85 -57.36,-22.85zm0 29.54c13.68,0 24.98,4.92 33.89,14.77 8.91,9.85 13.37,21.71 13.37,35.59 0,14.1 -4.3,25.91 -12.9,35.44 -8.6,9.53 -20.06,14.3 -34.35,14.3 -14.3,0 -25.7,-4.77 -34.2,-14.3 -8.5,-9.54 -12.75,-21.35 -12.75,-35.44 0,-14.09 4.3,-26.01 12.9,-35.75 8.6,-9.74 19.95,-14.61 34.04,-14.61zm221.35 85.5c-9.33,9.54 -21.45,14.3 -36.37,14.3 -13.89,0 -25.49,-4.35 -34.82,-13.06 -9.33,-8.7 -13.99,-20.83 -13.99,-36.38 0,-14.92 4.67,-26.99 13.99,-36.22 9.33,-9.22 21.04,-13.83 35.13,-13.83 13.68,0 25.18,4.56 34.51,13.68l20.52 -21.45c-15.33,-15.13 -33.78,-22.7 -55.34,-22.7 -23.21,0 -42.49,7.05 -57.83,21.14 -15.33,14.09 -23,33.89 -23,59.38 0,25.5 7.67,45.29 23,59.38 15.34,14.09 34.61,21.14 57.83,21.14 22.59,0 41.97,-7.98 58.14,-23.94l-21.76 -21.45zm50.37 -175.96l0 217.31 32.33 0 0 -70.88 65.6 70.88 39.17 0 0 -2.18 -75.24 -78.96 66.22 -70.26 0 -1.87 -38.86 0 -56.89 62.8 0 -126.84 -32.33 0zm338.56 15.23c9.95,0 18.81,2.07 26.58,6.22 7.77,4.15 13.68,9.48 17.72,16.01 4.04,6.53 7,13.78 8.86,21.76 1.86,7.98 1.86,15.91 0,23.78 -1.87,7.87 -4.82,15.08 -8.86,21.61 -4.04,6.53 -9.95,11.87 -17.72,16.01 -7.77,4.15 -16.63,6.22 -26.58,6.22l-78.65 0 0 -111.61 78.65 0zm0 126.84c11.4,0 21.71,-2.02 30.93,-6.06 9.22,-4.04 16.69,-9.43 22.39,-16.17 5.7,-6.74 10.05,-14.35 13.06,-22.85 3,-8.5 4.51,-17.2 4.51,-26.11 0,-8.91 -1.5,-17.61 -4.51,-26.11 -3.01,-8.5 -7.36,-16.11 -13.06,-22.85 -5.7,-6.74 -13.16,-12.13 -22.39,-16.17 -9.22,-4.04 -19.53,-6.06 -30.93,-6.06l-95.44 0 0 217.62 16.79 0 0 -75.24 78.65 0zm170.68 77.72c22.18,0 40.72,-7.15 55.65,-21.45 14.92,-14.3 22.38,-33.37 22.38,-57.2 0,-23.83 -7.46,-43.11 -22.38,-57.83 -14.93,-14.72 -33.47,-22.07 -55.65,-22.07 -22.18,0 -40.73,7.36 -55.65,22.07 -14.93,14.72 -22.39,33.99 -22.39,57.83 0,23.83 7.46,42.9 22.39,57.2 14.92,14.3 33.47,21.45 55.65,21.45zm0 -14.93c-18.03,0 -33.06,-5.8 -45.08,-17.41 -12.02,-11.61 -18.03,-27.05 -18.03,-46.32 0,-19.48 6.06,-35.29 18.19,-47.41 12.12,-12.13 27.1,-18.19 44.92,-18.19 17.83,0 32.8,6.06 44.93,18.19 12.12,12.12 18.19,27.93 18.19,47.41 0,19.27 -6.01,34.71 -18.03,46.32 -12.02,11.61 -27.05,17.41 -45.08,17.41zm228.81 -123.11c-14.51,-13.68 -33.58,-20.52 -57.2,-20.52 -17,-0.21 -31.45,3.37 -43.37,10.72 -11.92,7.36 -17.77,18.09 -17.56,32.18 0,6.01 1.24,11.24 3.73,15.7 2.48,4.46 5.33,8.03 8.55,10.72 3.21,2.7 7.82,5.08 13.83,7.15 6.01,2.07 11.19,3.57 15.54,4.51 4.35,0.93 10.36,2.02 18.03,3.26 6.63,1.04 11.71,1.92 15.23,2.64 3.52,0.72 7.93,1.87 13.22,3.42 5.28,1.56 9.22,3.31 11.81,5.28 2.59,1.97 4.92,4.56 7,7.77 2.07,3.22 3,7 2.8,11.35 -0.21,7.46 -3.16,13.52 -8.86,18.19 -5.7,4.67 -11.76,7.67 -18.19,9.02 -6.43,1.35 -13.37,2.02 -20.83,2.02 -10.99,0 -21.61,-2.18 -31.87,-6.53 -10.26,-4.35 -18.39,-10.88 -24.41,-19.59l-11.19 9.95c6.43,9.95 15.7,17.57 27.82,22.85 12.13,5.29 25.24,7.93 39.33,7.93 10.16,0 19.64,-1.14 28.44,-3.42 8.81,-2.28 16.74,-6.79 23.78,-13.52 7.05,-6.74 10.67,-15.39 10.88,-25.96 0.62,-15.54 -6.22,-26.84 -20.52,-33.89 -7.46,-3.94 -21.76,-7.67 -42.9,-11.19 -5.18,-0.83 -8.65,-1.45 -10.42,-1.86 -1.76,-0.41 -5.02,-1.19 -9.79,-2.33 -4.77,-1.14 -8.24,-2.28 -10.41,-3.42 -2.18,-1.14 -4.72,-2.69 -7.62,-4.67 -2.9,-1.97 -5.02,-4.25 -6.37,-6.84 -1.35,-2.59 -2.02,-5.54 -2.02,-8.86 -0.21,-9.33 4.2,-16.42 13.21,-21.29 9.02,-4.87 20.06,-7.2 33.11,-7 19.69,0 35.65,5.39 47.87,16.17l9.33 -9.95zm155.76 0c-14.51,-13.68 -33.57,-20.52 -57.2,-20.52 -17,-0.21 -31.45,3.37 -43.37,10.72 -11.91,7.36 -17.77,18.09 -17.56,32.18 0,6.01 1.24,11.24 3.73,15.7 2.48,4.46 5.33,8.03 8.55,10.72 3.21,2.7 7.83,5.08 13.83,7.15 6.01,2.07 11.19,3.57 15.55,4.51 4.35,0.93 10.36,2.02 18.03,3.26 6.63,1.04 11.71,1.92 15.24,2.64 3.52,0.72 7.93,1.87 13.21,3.42 5.28,1.56 9.22,3.31 11.81,5.28 2.59,1.97 4.93,4.56 7,7.77 2.07,3.22 3.01,7 2.8,11.35 -0.21,7.46 -3.16,13.52 -8.86,18.19 -5.7,4.67 -11.76,7.67 -18.19,9.02 -6.43,1.35 -13.37,2.02 -20.83,2.02 -10.98,0 -21.61,-2.18 -31.87,-6.53 -10.26,-4.35 -18.39,-10.88 -24.4,-19.59l-11.2 9.95c6.43,9.95 15.7,17.57 27.83,22.85 12.13,5.29 25.23,7.93 39.33,7.93 10.16,0 19.64,-1.14 28.45,-3.42 8.81,-2.28 16.73,-6.79 23.78,-13.52 7.05,-6.74 10.67,-15.39 10.88,-25.96 0.62,-15.54 -6.22,-26.84 -20.52,-33.89 -7.46,-3.94 -21.76,-7.67 -42.9,-11.19 -5.18,-0.83 -8.65,-1.45 -10.41,-1.86 -1.76,-0.41 -5.03,-1.19 -9.79,-2.33 -4.77,-1.14 -8.24,-2.28 -10.42,-3.42 -2.18,-1.14 -4.72,-2.69 -7.62,-4.67 -2.9,-1.97 -5.02,-4.25 -6.37,-6.84 -1.35,-2.59 -2.02,-5.54 -2.02,-8.86 -0.21,-9.33 4.19,-16.42 13.21,-21.29 9.02,-4.87 20.06,-7.2 33.11,-7 19.69,0 35.65,5.39 47.87,16.17l9.33 -9.95zm60.31 -18.65l0 154.2 -15.24 0 0 -154.2 15.24 0zm-19.59 -49.43c0,3.73 1.3,6.68 3.89,8.86 2.59,2.17 5.39,3.26 8.39,3.26 3,0 5.8,-1.09 8.39,-3.26 2.59,-2.18 3.89,-5.13 3.89,-8.86 0,-3.73 -1.3,-6.69 -3.89,-8.86 -2.59,-2.18 -5.39,-3.27 -8.39,-3.27 -3,0 -5.8,1.09 -8.39,3.27 -2.59,2.17 -3.89,5.13 -3.89,8.86zm147.98 62.17c18.24,0 33.27,5.6 45.08,16.79 11.81,11.19 17.72,27.15 17.72,47.88 0,20.52 -5.96,36.37 -17.87,47.56 -11.92,11.19 -26.89,16.79 -44.93,16.79 -18.24,0 -33.27,-6.01 -45.08,-18.03 -11.81,-12.02 -17.72,-27.57 -17.72,-46.63 0,-18.86 5.96,-34.3 17.87,-46.32 11.92,-12.02 26.89,-18.04 44.93,-18.04zm-78.04 -76.17l0 217.62 14.93 0 0 -33.89c6.22,11.4 15.13,20.31 26.74,26.74 11.61,6.43 24.04,9.64 37.31,9.64 22.18,0 40.52,-7.05 55.03,-21.14 14.51,-14.09 21.76,-33.47 21.76,-58.13 0,-24.67 -7.31,-44.05 -21.92,-58.14 -14.61,-14.09 -33.01,-21.14 -55.19,-21.14 -13.89,0 -26.48,3.01 -37.77,9.02 -11.3,6.01 -19.95,15.03 -25.96,27.05l0 -97.62 -14.93 0zm211.41 63.42l0 154.2 -15.24 0 0 -154.2 15.24 0zm-19.59 -49.43c0,3.73 1.3,6.68 3.89,8.86 2.59,2.17 5.39,3.26 8.39,3.26 3.01,0 5.81,-1.09 8.4,-3.26 2.59,-2.18 3.89,-5.13 3.89,-8.86 0,-3.73 -1.3,-6.69 -3.89,-8.86 -2.59,-2.18 -5.39,-3.27 -8.4,-3.27 -3,0 -5.8,1.09 -8.39,3.27 -2.59,2.17 -3.89,5.13 -3.89,8.86zm72.13 -13.99l0 217.62 15.23 0 0 -217.62 -15.23 0zm83.01 63.42l0 154.2 -15.24 0 0 -154.2 15.24 0zm-19.59 -49.43c0,3.73 1.3,6.68 3.89,8.86 2.59,2.17 5.39,3.26 8.39,3.26 3.01,0 5.81,-1.09 8.4,-3.26 2.59,-2.18 3.89,-5.13 3.89,-8.86 0,-3.73 -1.3,-6.69 -3.89,-8.86 -2.59,-2.18 -5.39,-3.27 -8.4,-3.27 -3,0 -5.8,1.09 -8.39,3.27 -2.59,2.17 -3.89,5.13 -3.89,8.86zm87.67 5.28l0 44.77 -32.64 0 0 12.75 32.64 0 0 93.57c0,15.96 3.31,28.19 9.95,36.69 6.63,8.5 17.72,12.74 33.27,12.74 8.5,0 18.13,-2.59 28.91,-7.77l-5.28 -12.44c-8.7,4.15 -16.58,6.22 -23.63,6.22 -11.19,0 -18.71,-2.95 -22.54,-8.86 -3.84,-5.91 -5.76,-14.77 -5.76,-26.58l0 -93.57 52.23 0 0 -12.75 -52.23 0 0 -46.32 -14.92 1.56zm114.41 44.15l0 154.2 -15.23 0 0 -154.2 15.23 0zm-19.59 -49.43c0,3.73 1.3,6.68 3.89,8.86 2.59,2.17 5.39,3.26 8.39,3.26 3.01,0 5.8,-1.09 8.39,-3.26 2.59,-2.18 3.89,-5.13 3.89,-8.86 0,-3.73 -1.3,-6.69 -3.89,-8.86 -2.59,-2.18 -5.39,-3.27 -8.39,-3.27 -3,0 -5.8,1.09 -8.39,3.27 -2.59,2.17 -3.89,5.13 -3.89,8.86zm137.73 206.12c12.85,0 25.28,-2.54 37.3,-7.61 12.02,-5.08 21.66,-12.39 28.91,-21.92l-10.88 -8.7c-5.59,7.26 -13.57,12.95 -23.94,17.1 -10.36,4.15 -20.83,6.22 -31.4,6.22 -16.37,0 -30.52,-5.18 -42.44,-15.54 -11.92,-10.36 -18.6,-24.25 -20.06,-41.66l138.35 0c2.69,-28.19 -3.37,-49.64 -18.19,-64.35 -14.82,-14.72 -34.04,-22.07 -57.67,-22.07 -21.76,0 -40.21,7.52 -55.34,22.54 -15.13,15.03 -22.7,33.94 -22.7,56.74 0,23.83 7.46,43.01 22.38,57.51 14.93,14.51 33.47,21.76 55.65,21.76zm-62.49 -85.5c1.66,-18.24 8.39,-32.64 20.21,-43.21 11.81,-10.57 25.91,-15.86 42.28,-15.86 18.86,0 33.89,5.19 45.08,15.55 11.19,10.36 16.89,24.87 17.09,43.52l-124.67 0zm287.89 -52.54c-14.51,-13.68 -33.58,-20.52 -57.2,-20.52 -17,-0.21 -31.45,3.37 -43.37,10.72 -11.92,7.36 -17.77,18.09 -17.57,32.18 0,6.01 1.24,11.24 3.73,15.7 2.49,4.46 5.34,8.03 8.55,10.72 3.21,2.7 7.82,5.08 13.83,7.15 6.01,2.07 11.19,3.57 15.54,4.51 4.35,0.93 10.36,2.02 18.03,3.26 6.63,1.04 11.71,1.92 15.23,2.64 3.52,0.72 7.93,1.87 13.22,3.42 5.28,1.56 9.22,3.31 11.81,5.28 2.59,1.97 4.92,4.56 7,7.77 2.07,3.22 3,7 2.8,11.35 -0.21,7.46 -3.16,13.52 -8.86,18.19 -5.7,4.67 -11.76,7.67 -18.19,9.02 -6.43,1.35 -13.37,2.02 -20.83,2.02 -10.99,0 -21.61,-2.18 -31.87,-6.53 -10.26,-4.35 -18.39,-10.88 -24.41,-19.59l-11.19 9.95c6.43,9.95 15.7,17.57 27.82,22.85 12.13,5.29 25.24,7.93 39.33,7.93 10.15,0 19.64,-1.14 28.44,-3.42 8.81,-2.28 16.74,-6.79 23.78,-13.52 7.05,-6.74 10.67,-15.39 10.88,-25.96 0.62,-15.54 -6.22,-26.84 -20.52,-33.89 -7.46,-3.94 -21.76,-7.67 -42.9,-11.19 -5.18,-0.83 -8.65,-1.45 -10.42,-1.86 -1.76,-0.41 -5.02,-1.19 -9.79,-2.33 -4.77,-1.14 -8.24,-2.28 -10.41,-3.42 -2.18,-1.14 -4.72,-2.69 -7.62,-4.67 -2.9,-1.97 -5.02,-4.25 -6.37,-6.84 -1.35,-2.59 -2.02,-5.54 -2.02,-8.86 -0.21,-9.33 4.2,-16.42 13.21,-21.29 9.02,-4.87 20.05,-7.2 33.11,-7 19.69,0 35.65,5.39 47.87,16.17l9.33 -9.95z"/>
  <path class="fil3" d="M3446.08 413.3c8.63,0 15.62,6.99 15.62,15.62 0,8.62 -6.99,15.62 -15.62,15.62 -8.63,0 -15.62,-7 -15.62,-15.62 0,-8.63 6.99,-15.62 15.62,-15.62z"/>
 </g>
</svg>
